<svg viewBox="0 0 128 128" xmlns="http://www.w3.org/2000/svg">
  <defs>
    <filter id="glow-redis" x="-50%" y="-50%" width="200%" height="200%">
      <feGaussianBlur stdDeviation="3" result="coloredBlur"/>
      <feMerge>
        <feMergeNode in="coloredBlur"/>
        <feMergeNode in="SourceGraphic"/>
      </feMerge>
    </filter>
  </defs>
  <path fill="#DC382D" filter="url(#glow-redis)" d="M121.8 93.1c-6.7 3.5-41.4 17.7-48.8 21.6-7.4 3.9-11.5 3.8-17.3 1S13 98.1 6.3 94.9c-3.3-1.6-5-2.9-5-4.2V78.2s48-10.5 55.8-13.2c7.8-2.8 10.4-2.9 17-.5s46.1 9.5 52.6 11.9v12.5c0 1.3-1.5 2.7-4.9 4.2z"/>
  <path fill="#A41E11" filter="url(#glow-redis)" d="M121.8 80.5C115.1 84 80.4 98.2 73 102.1c-7.4 3.9-11.5 3.8-17.3 1C48.4 99.3 13 85.6 6.3 82.4c-6.6-3.1-6.8-5.3-.4-7.7 6.5-2.4 43.2-16.9 51-19.6 7.8-2.8 10.4-2.9 17-.5 6.6 2.4 41.5 16.3 48 18.8 6.6 2.4 6.6 4.6-.1 7.1z"/>
  <path fill="#DC382D" filter="url(#glow-redis)" d="M121.8 72.5c-6.7 3.5-41.4 17.7-48.8 21.6-7.4 3.9-11.5 3.8-17.3 1S13 77.5 6.3 74.3c-3.3-1.6-5-2.9-5-4.2V57.6s48-10.5 55.8-13.2c7.8-2.8 10.4-2.9 17-.5s46.1 9.5 52.6 11.9v12.5c0 1.3-1.5 2.7-4.9 4.2z"/>
  <path fill="#A41E11" filter="url(#glow-redis)" d="M121.8 59.9c-6.7 3.5-41.4 17.7-48.8 21.6-7.4 3.9-11.5 3.8-17.3 1S13 64.9 6.3 61.7c-6.6-3.1-6.8-5.3-.4-7.7 6.5-2.4 43.2-16.9 51-19.6 7.8-2.8 10.4-2.9 17-.5 6.6 2.4 41.5 16.3 48 18.8 6.6 2.4 6.6 4.6-.1 7.2z"/>
  <path fill="#DC382D" filter="url(#glow-redis)" d="M121.8 51.9c-6.7 3.5-41.4 17.7-48.8 21.6-7.4 3.9-11.5 3.8-17.3 1S13 56.9 6.3 53.7c-3.3-1.6-5-2.9-5-4.2V37s48-10.5 55.8-13.2c7.8-2.8 10.4-2.9 17-.5s46.1 9.5 52.6 11.9v12.5c0 1.3-1.5 2.7-4.9 4.2z"/>
  <path fill="#A41E11" filter="url(#glow-redis)" d="M121.8 39.3c-6.7 3.5-41.4 17.7-48.8 21.6-7.4 3.9-11.5 3.8-17.3 1S13 44.3 6.3 41.1c-6.6-3.1-6.8-5.3-.4-7.7 6.5-2.4 43.2-16.9 51-19.6 7.8-2.8 10.4-2.9 17-.5 6.6 2.4 41.5 16.3 48 18.8 6.6 2.4 6.6 4.6-.1 7.2z"/>
</svg>
